{"title":"Good Night Good Morning (2012) - iTunes - Eng Subs - 720p - x264","uid":12018426,"size":865571279,"categoryP":"video","categoryS":"movies","magnet":"?xt=urn:btih:d56165823ca07a858d68394cab720ed20334e30e&amp;dn=Good+Night+Good+Morning+%282012%29+-+iTunes+-+Eng+Subs+-+720p+-+x264&amp;tr=udp%3A%2F%2Ftracker.openbittorrent.com%3A80&amp;tr=udp%3A%2F%2Fopen.demonii.com%3A1337&amp;tr=udp%3A%2F%2Ftracker.coppersurfer.tk%3A6969&amp;tr=udp%3A%2F%2Fexodus.desync.com%3A6969","seeders":0,"leechers":1,"uploader":"SS132203","files":3,"time":1434354422,"description":"Good Night Good Morning (2012) - iTunes - Eng Subs - 720p - x264 -={SPARROW}=-\n &lt;a href=&quot;\nhttp://imgsparrow.co/image/5t&quot; rel=&quot;nofollow&quot; target=&quot;_NEW&quot;&gt;\nhttp://imgsparrow.co/image/5t&lt;/a&gt;\n &lt;a href=&quot;\nhttp://imgsparrow.co/image/yp&quot; rel=&quot;nofollow&quot; target=&quot;_NEW&quot;&gt;\nhttp://imgsparrow.co/image/yp&lt;/a&gt;\n\nInfo : - \n\nSOURCE: 1080p Untouched iTunes Team Trelly (Thanks a Ton)\n\nFormat                      : Matroska\nFormat version              : Version 2\nFile size                   : 825 MiB\nDuration                    : 1h 20mn\nOverall bit rate            : 1 427 Kbps\nWriting application         : HandBrake 0.10.1 2015030800\nWriting library             : Lavf55.12.0\n\nVideo\nID                          : 1\nFormat                      : AVC\nFormat/Info                 : Advanced Video Codec\nFormat profile              : &lt;a class=&quot;__cf_email__&quot; href=&quot;/cdn-cgi/l/email-protection&quot; data-cfemail=&quot;622f030b0c222e564c53&quot;&gt;[email&amp;#160;protected]&lt;/a&gt;&lt;script data-cfhash='f9e31' type=&quot;text/javascript&quot;&gt;\n/* &lt;![CDATA[ */!function(){try{var t=&quot;currentScript&quot;in document?document.currentScript:function(){for(var t=document.getElementsByTagName(&quot;script&quot;),e=t.length;e--;)if(t[e].getAttribute(&quot;data-cfhash&quot;))return t[e]}();if(t&amp;&amp;t.previousSibling){var e,r,n,i,c=t.previousSibling,a=c.getAttribute(&quot;data-cfemail&quot;);if(a){for(e=&quot;&quot;,r=parseInt(a.substr(0,2),16),n=2;a.length-n;n+=2)i=parseInt(a.substr(n,2),16)^r,e+=String.fromCharCode(i);e=document.createTextNode(e),c.parentNode.replaceChild(e,c)}t.parentNode.removeChild(t);}}catch(u){}}()/* ]]&gt; */&lt;/script&gt;\nFormat settings, CABAC      : Yes\nFormat settings, ReFrames   : 4 frames\nCodec ID                    : V_MPEG4/ISO/AVC\nDuration                    : 1h 20mn\nBit rate                    : 1 200 Kbps\nWidth                       : 1 280 pixels\nHeight                      : 716 pixels\nDisplay aspect ratio        : 16:9\nOriginal display aspect rat : 16:9\nFrame rate mode             : Constant\nFrame rate                  : 23.976 fps\nColor space                 : YUV\nChroma subsampling          : 4:2:0\nBit depth                   : 8 bits\nScan type                   : Progressive\nBits/(Pixel*Frame)          : 0.055\nStream size                 : 679 MiB (82%)\nWriting library             : x264 core 142 r2479 dd79a61\nDefault                     : Yes\nForced                      : No\nColor range                 : Limited\nColor primaries             : BT.709\nTransfer characteristics    : BT.709\nMatrix coefficients         : BT.709\n\nAudio\nID                          : 2\nFormat                      : AC-3\nFormat/Info                 : Audio Coding 3\nMode extension              : CM (complete main)\nFormat settings, Endianness : Big\nCodec ID                    : A_AC3\nDuration                    : 1h 20mn\nBit rate mode               : Constant\nBit rate                    : 224 Kbps\nChannel(s)                  : 2 channels\nChannel positions           : Front: L R\nSampling rate               : 48.0 KHz\nCompression mode            : Lossy\nDelay relative to video     : 27ms\nStream size                 : 130 MiB (16%)\nTitle                       : Stereo\nLanguage                    : English\nDefault                     : Yes\nForced                      : No\n\nScreens : - \n &lt;a href=&quot;\nhttp://imgsparrow.co/image/5E&quot; rel=&quot;nofollow&quot; target=&quot;_NEW&quot;&gt;\nhttp://imgsparrow.co/image/5E&lt;/a&gt; &lt;a href=&quot;\nhttp://imgsparrow.co/image/5J&quot; rel=&quot;nofollow&quot; target=&quot;_NEW&quot;&gt;\nhttp://imgsparrow.co/image/5J&lt;/a&gt; &lt;a href=&quot;\nhttp://imgsparrow.co/image/5U&quot; rel=&quot;nofollow&quot; target=&quot;_NEW&quot;&gt;\nhttp://imgsparrow.co/image/5U&lt;/a&gt; &lt;a href=&quot;\nhttp://imgsparrow.co/image/5u&quot; rel=&quot;nofollow&quot; target=&quot;_NEW&quot;&gt;\nhttp://imgsparrow.co/image/5u&lt;/a&gt; &lt;a href=&quot;\nhttp://imgsparrow.co/image/5w&quot; rel=&quot;nofollow&quot; target=&quot;_NEW&quot;&gt;\nhttp://imgsparrow.co/image/5w&lt;/a&gt; &lt;a href=&quot;\nhttp://imgsparrow.co/image/54&quot; rel=&quot;nofollow&quot; target=&quot;_NEW&quot;&gt;\nhttp://imgsparrow.co/image/54&lt;/a&gt; &lt;a href=&quot;\nhttp://imgsparrow.co/image/5H&quot; rel=&quot;nofollow&quot; target=&quot;_NEW&quot;&gt;\nhttp://imgsparrow.co/image/5H&lt;/a&gt; &lt;a href=&quot;\nhttp://imgsparrow.co/image/5T&quot; rel=&quot;nofollow&quot; target=&quot;_NEW&quot;&gt;\nhttp://imgsparrow.co/image/5T&lt;/a&gt; &lt;a href=&quot;\nhttp://imgsparrow.co/image/5b&quot; rel=&quot;nofollow&quot; target=&quot;_NEW&quot;&gt;\nhttp://imgsparrow.co/image/5b&lt;/a&gt; &lt;a href=&quot;\nhttp://imgsparrow.co/image/5h&quot; rel=&quot;nofollow&quot; target=&quot;_NEW&quot;&gt;\nhttp://imgsparrow.co/image/5h&lt;/a&gt;\n &lt;a href=&quot;\nhttp://imgsparrow.co/image/N2&quot; rel=&quot;nofollow&quot; target=&quot;_NEW&quot;&gt;\nhttp://imgsparrow.co/image/N2&lt;/a&gt;","torrent":{"xt":"urn:btih:d56165823ca07a858d68394cab720ed20334e30e","amp;dn":"Good+Night+Good+Morning+%282012%29+-+iTunes+-+Eng+Subs+-+720p+-+x264","amp;tr":["udp%3A%2F%2Ftracker.openbittorrent.com%3A80","udp%3A%2F%2Fopen.demonii.com%3A1337","udp%3A%2F%2Ftracker.coppersurfer.tk%3A6969","udp%3A%2F%2Fexodus.desync.com%3A6969"],"infoHash":"d56165823ca07a858d68394cab720ed20334e30e","infoHashBuffer":{"type":"Buffer","data":[213,97,101,130,60,160,122,133,141,104,57,76,171,114,14,210,3,52,227,14]},"announce":[],"urlList":[]}}